<?xml version="1.0" encoding="UTF-8"?>
<svg id="Layer_1" data-name="Layer 1" xmlns="http://www.w3.org/2000/svg" viewBox="0 0 240.1800197 49.525321">
  <defs>
    <style>
      .cls-1 {
        fill: #231f20;
      }
    </style>
  </defs>
  <path class="cls-1" d="M40.3290937,15.5663028c-1.9521403,0-3.7330179.5946678-5.2218898,1.6319067l-.0256073.0178557-1.3367593.79228-.0700965,2.8822768,2.6750816-1.5788764c1.115608-.8158191,2.491173-1.2974484,3.9792713-1.2974484,3.727066,0,6.7482412,3.0211752,6.7482412,6.7482412s-3.0211752,6.7482412-6.7482412,6.7482412c-3.7270818,0-6.748257-3.0211752-6.748257-6.7482412l.1554595-6.4259551.2224459-9.1403476c0-5.0791076-4.1171278-9.1962354-9.1962196-9.1962354-4.4042393,0-8.0806116,3.0977446-8.9807518,7.2324597-.1381249.6332051-.2154678,1.2891758-.2154678,1.9637757,0,1.5649045.3934245,3.0369469,1.0827542,4.3268963l.2832436.478014,6.1282187,10.3400241,1.2348668,2.0832713,3.0053877,5.0713402,2.7757111,4.6830781.9063447,1.529209c.3398891.8057309.5282024,1.691394.5282024,2.6210252,0,3.7268055-3.0214436,6.7482412-6.7485096,6.7482412-3.7268134,0-6.7482412-3.0214357-6.7482412-6.7482412l.1678685-6.4174141.0897519-3.9339928-2.5242794,1.4893771-.1813195,8.8620298c0,5.0788392,4.1173804,9.1962275,9.1962196,9.1962275,4.3858784,0,8.0482788-3.0729109,8.9680902-7.181245.1451029-.6492452.2281294-1.3220217.2281294-2.0149825,0-1.5527481-.3882462-3.0136762-1.0677561-4.2963791l-.4836975-.814272-5.9738011-10.0557543-1.2395083-2.0861131-3.0033353-5.055821-2.912794-4.9029349-.5791487-.9749098c-.43403-.8913465-.6844198-1.8887535-.6844198-2.946674,0-3.727066,3.0214278-6.7482412,6.7482412-6.7482412,3.727066,0,6.7485096,3.0211752,6.7485096,6.7482412l-.1557279,6.4036948-.0946619,3.8946819-6.0514125,3.586873,1.236414,2.0812032,4.745423-2.7995029-.0582085,2.3993529c0,5.0790918,4.1173962,9.1962196,9.1962354,9.1962196,5.0788234,0,9.1962196-4.1171278,9.1962196-9.1962196,0-5.0788392-4.1173962-9.1962354-9.1962196-9.1962354"/>
  <path class="cls-1" d="M18.2720281,29.9777025l6.0232002-3.5534982-1.2345826-2.0830029-4.7236994,2.7997555-2.5315259,1.504391v-.0038837l-.1722732.1019083-2.4319383,1.4415252c-1.3828115,1.0230143-3.1626786,1.5395656-5.0736767,1.2428711-2.8778721-.44696-5.1895412-2.7754428-5.6065049-5.6579721-.6000987-4.1479134,2.5773096-7.7104736,6.5990019-7.7552312,3.7097313-.0411264,6.7446259,3.1712038,6.7446259,6.8814561v.8528093l-.0592347,2.8926334,2.5315259-1.5005073.021471-.9511022.0315592-1.3763386.0015472-.0700965c-.0111302-5.4161392-4.7032546-9.7332157-10.2463884-9.1188924C3.9302198,16.0919318.524161,19.4995535.0580508,23.7144533c-.6132971,5.5483121,3.714136,10.244336,9.1382795,10.244336,1.9984293,0,3.8442408-.6419987,5.3522472-1.7252897.2418487-.1738204.484992-.3450516.7413179-.4963748l.5155251-.3041778,2.4666077-1.4552445Z"/>
  <path class="cls-1" d="M62.7819352,16.908136h5.9975224c.770966,0,1.4374059-.3653946,1.9982596-1.0982208.5588168-.7352164.838059-1.6737277.838059-2.8196285,0-1.1721311-.3197515-2.1058827-.9572383-2.7981995-.6422465-.6946863-1.3348959-1.0410213-2.0796524-1.0410213h-5.7969503v7.75707ZM56.2235591,31.7800295V3.3949992h12.7946105c1.3321731,0,2.5666166.2792213,3.6982175.8400958,1.1316009.5588168,2.1130326,1.291643,2.9391819,2.1991851.8234058.9047985,1.4707653,1.93152,1.9362797,3.0774208s.701857,2.3064548.701857,3.4785859c0,.8809585-.1076231,1.7261674-.322495,2.5379961-.2125025.8138864-.5179541,1.580446-.916729,2.2989723-.398754.7212491-.8881085,1.3682761-1.4612459,1.9386699-.5727633.5731167-1.2197903,1.0600809-1.9386699,1.4612459l6.2362552,10.5528584h-7.3964559l-5.4339251-9.1539458h-4.2785049v9.1539458h-6.5583761Z"/>
  <path class="cls-1" d="M88.0491601,17.6277015c0,1.0934611.1573192,2.1535627.477424,3.1799308.3221625,1.0243312.7927691,1.9386699,1.4203832,2.738589.6279467.7975288,1.4064159,1.4397961,2.3374447,1.9172202.9337516.4798143,2.0006498.7209165,3.1993437.7209165,1.2535031,0,2.3469641-.2530119,3.2779929-.7593889.9333983-.5060445,1.7071079-1.1673714,2.3207547-1.9788675.6136468-.8142189,1.0720113-1.7336707,1.3774629-2.7600388.3081952-1.0243312.4607547-2.0701122.4607547-3.1373638,0-1.0934611-.1597095-2.1535419-.4798143-3.1799308-.317382-1.0243312-.7999191-1.9318526-1.4394636-2.7171392-.6398563-.7879887-1.4183256-1.4135659-2.3398142-1.8814497-.916729-.463145-1.9768098-.6970765-3.1778732-.6970765-1.2511336,0-2.3374447.2458619-3.2565639.7399761-.9214886.4920772-1.6951775,1.1391042-2.3207547,1.9386699-.6255564.7999191-1.0934611,1.7118883-1.3989127,2.738589-.3081952,1.0267215-.4583645,2.0725025-.4583645,3.1373638M95.4456159,32.0218176c-2.1058827,0-4.0254931-.4130539-5.7564409-1.2392032-1.7357076-.825796-3.2136228-1.9144974-4.4405838-3.2589334-1.2272936-1.3464729-2.177382-2.8839986-2.8581217-4.6197062-.6779962-1.7309479-1.0192182-3.5167257-1.0192182-5.3552759,0-1.8644271.3531317-3.6648581,1.0577114-5.3981755.7065959-1.7333381,1.6924547-3.2589334,2.9602784-4.5768066,1.2654335-1.3202635,2.7647985-2.3731944,4.4981366-3.1588136,1.7309479-.7852867,3.624328-1.179281,5.6750274-1.179281,2.1058827,0,4.0254723.4130747,5.7612006,1.239224,1.7309479.8261285,3.2088631,1.9171994,4.4361567,3.2779929,1.226961,1.3607728,2.1726223,2.9054484,2.8387088,4.6387865.6660865,1.7309479.9977684,3.490828.9977684,5.2766059,0,1.8644271-.3507414,3.6648373-1.0576906,5.3981755-.7066167,1.7309479-1.6853255,3.2589334-2.9388286,4.5768066-1.2535239,1.3202635-2.7457597,2.3779541-4.4766868,3.1778939-1.7333381.7995657-3.6267182,1.20071-5.6774176,1.20071"/>
  <rect class="cls-1" x="113.3954291" y="3.3939184" width="6.5560067" height="28.3874413"/>
  <polygon class="cls-1" points="131.9451503 15.548922 131.9451503 31.7816091 125.3891436 31.7816091 125.3891436 3.3941678 130.5053542 3.3941678 143.7396022 20.066139 143.7396022 3.3941678 150.2979991 3.3941678 150.2979991 31.7816091 145.0213932 31.7816091 131.9451503 15.548922"/>
  <polygon class="cls-1" points="182.4419589 31.7811518 182.4419589 7.2325987 171.2468332 26.3829764 169.9670791 26.3829764 158.7722859 7.2325987 158.7722859 31.7811518 156.7331429 31.7811518 156.7331429 3.3937313 158.7722859 3.3937313 170.6069562 23.7043304 182.4419589 3.3937313 184.4807279 3.3937313 184.4807279 31.7811518 182.4419589 31.7811518"/>
  <path class="cls-1" d="M207.9095896,20.7457563l-6.1980737-14.8715609-6.3149252,14.8715609h12.5129989ZM200.8329476,3.393378h1.7571366l11.9950448,28.3874413h-2.1583224l-3.9587327-9.3541853h-13.5512767l-3.9611021,9.3541853h-2.1964831l12.0737356-28.3874413Z"/>
  <polygon class="cls-1" points="217.8232153 3.3943756 227.7791171 16.3085396 237.6921192 3.3943756 240.0128531 3.3943756 228.8582575 17.7885125 239.6927691 31.7818169 237.3719936 31.7818169 227.7791171 19.2664278 218.1429668 31.7818169 215.7844048 31.7818169 226.6189164 17.7885125 215.4643208 3.3943756 217.8232153 3.3943756"/>
  <g>
    <path class="cls-1" d="M57.0414109,47.7147574v-11.269618h4.74589c.4865277,0,.9364744.103092,1.3491749.309276.4127005.2065165.767204.4762185,1.0635103.809771.2959738.3332199.5261017.7116673.6903838,1.1346771.1639495.4233423.2460906.8520055.2460906,1.2859895,0,.412368-.0611901.806778-.1825726,1.1822324-.1217151.375787-.2936459.7143278-.5157925,1.015955s-.4868603.5556991-.7938084.7618831c-.3069481.2065165-.6508098.3468547-1.0315851.4206819l2.7778305,4.349152h-1.2540643l-2.6667572-4.1585981h-3.333197v4.1585981h-1.095103ZM58.1365139,42.5721296h3.6983422c.3278991,0,.6268659-.0714993.8969004-.2144979.269702-.142666.4998299-.3358804.6903838-.5793105s.3385408-.518453.4446258-.8254011c.1054199-.3066156.1586287-.6295263.1586287-.9680671s-.0611901-.664112-.1825726-.976381c-.1217151-.3119364-.2856646-.5846314-.4921811-.8174198-.206184-.2327884-.4499467-.4180214-.7299578-.5556991-.2806763-.1373451-.5743222-.206184-.8809377-.206184h-3.6032316v5.1429604Z"/>
    <path class="cls-1" d="M76.6757805,46.7307277v.9840297h-7.5712758v-11.269618h7.4282772v.9840297h-6.3331741v4.0634874h5.5237357v.9364744h-5.5237357v4.3015967h6.4761727Z"/>
    <path class="cls-1" d="M80.421678,47.7147574v-11.2539879h1.095103v6.5396907l6.2061382-6.5553208h1.2224715l-4.6032239,4.9520739,4.8569633,6.3175441h-1.222139l-4.3172268-5.6667343-2.1429833,2.2065013v3.460233h-1.095103Z"/>
    <path class="cls-1" d="M92.1834772,47.7147574v-11.269618h1.095103v10.2855883h6.5237281v.9840297h-7.6188311Z"/>
    <path class="cls-1" d="M101.9449591,47.7147574l4.7142972-11.269618h.9045491l4.7142972,11.269618h-1.1905463l-1.4602482-3.523751h-5.0634798l-1.4442856,3.523751h-1.1745837ZM107.1195122,37.746759l-2.3175769,5.571291h4.5716335l-2.2540566-5.571291Z"/>
    <path class="cls-1" d="M125.4841875,47.7147574v-9.2540032l-4.1110428,7.1589078h-.6508098l-4.1270054-7.1589078v9.2540032h-1.095103v-11.269618h1.1270283l4.4123375,7.7139418,4.41267-7.7139418h1.1270283v11.269618h-1.095103Z"/>
  </g>
  <g>
    <path class="cls-1" d="M135.6899626,42.2698372v-.206184c0-3.3973801,1.7143201-5.6514367,4.3494846-5.6514367,2.6035717,0,4.3178919,2.2384265,4.3178919,5.6354741v.206184c0,3.3973801-1.7143201,5.6514367-4.3494846,5.6514367s-4.3178919-2.2384265-4.3178919-5.6354741ZM142.0078392,42.2382445v-.1429986c0-2.3335372-.8254011-3.5876015-1.9999847-3.5876015-1.1749162,0-1.968392,1.2224715-1.968392,3.5716389v.1429986c0,2.3335372.8094385,3.5876015,1.9999847,3.5876015,1.1749162,0,1.968392-1.2381016,1.968392-3.5716389Z"/>
    <path class="cls-1" d="M150.3882209,45.4287756h-4.7781478l-.2856646-1.6667648,5.2227736-7.2227583h2.0159474v6.9686864h1.3491749v1.9208367h-1.3491749v2.2859819h-2.1749086v-2.2859819ZM150.3882209,43.5079389v-3.5876015l-2.5397212,3.5876015h2.5397212Z"/>
    <path class="cls-1" d="M156.3402872,46.8574311c-.7778457-.8094385-1.2859895-1.9999847-1.2859895-4.2859666v-.0951107c0-3.794118,1.5556915-6.0641373,4.4449278-6.0641373,1.2061764,0,2.0794653.3811078,2.9524218,1.0319176l-1.1110657,1.8253935c-.5237739-.4127005-1.0954356-.7459205-1.889244-.7459205-1.4126929,0-1.968392,1.3491749-2.0475401,2.6507945.5713292-.3807753,1.1905463-.6664399,2.0794653-.6664399,1.8413561,0,3.4130102,1.158621,3.4130102,3.5240835v.0315927c0,2.2700193-1.6667648,3.8416734-3.8257107,3.8416734-1.1905463,0-2.0638353-.3811078-2.7302751-1.0478803ZM160.6422164,44.1747113v-.0315927c0-1.015955-.6192171-1.6986901-1.6511347-1.6986901-1.015955,0-1.6192095.6667724-1.6192095,1.6986901v.0159626c0,1.0315851.6192171,1.7302828,1.6351721,1.7302828,1.0319176,0,1.6351721-.6827351,1.6351721-1.7146527Z"/>
    <path class="cls-1" d="M168.9274874,45.4287756h-4.7781478l-.2856646-1.6667648,5.2227736-7.2227583h2.0159474v6.9686864h1.3491749v1.9208367h-1.3491749v2.2859819h-2.1749086v-2.2859819ZM168.9274874,43.5079389v-3.5876015l-2.5397212,3.5876015h2.5397212Z"/>
    <path class="cls-1" d="M176.9743166,45.8574387l3.2703442-3.3654549c1.1745837-1.2061764,1.6032468-1.8094308,1.6032468-2.6192018,0-.8413637-.5716617-1.3175822-1.3335449-1.3175822-.7778457,0-1.3175822.4446258-2.03191,1.3175822l-1.4921735-1.4126929c.9683997-1.3175822,2.095428-2.0159474,3.6986748-2.0159474,2.0478726,0,3.4924908,1.222139,3.4924908,3.2380864v.0319253c0,1.5556915-.7143278,2.4446105-2.3654625,4.0478574l-1.8573187,1.889244h4.2384113v2.0635027h-7.2227583v-1.8573187Z"/>
    <path class="cls-1" d="M187.1651267,38.8887523l-1.6986944.4602559-.3651409-2.0003173,2.7462378-.8254011h1.5876167v11.1914676h-2.2700193v-8.8260051Z"/>
    <path class="cls-1" d="M195.9429114,38.6822358h-4.6035565v-2.0794653h7.0957224v1.7143201l-4.2540414,9.3976669h-2.5081285l4.270004-9.0325217Z"/>
    <path class="cls-1" d="M207.7835261,45.4287756h-4.7781478l-.2856646-1.6667648,5.2227736-7.2227583h2.0159474v6.9686864h1.3491749v1.9208367h-1.3491749v2.2859819h-2.1749086v-2.2859819ZM207.7835261,43.5079389v-3.5876015l-2.5397212,3.5876015h2.5397212Z"/>
    <path class="cls-1" d="M216.8153826,38.6822358h-4.6035565v-2.0794653h7.0957224v1.7143201l-4.2540414,9.3976669h-2.5081285l4.270004-9.0325217Z"/>
    <path class="cls-1" d="M228.6563298,45.4287756h-4.7781478l-.2856646-1.6667648,5.2227736-7.2227583h2.0159474v6.9686864h1.3491749v1.9208367h-1.3491749v2.2859819h-2.1749086v-2.2859819ZM228.6563298,43.5079389v-3.5876015l-2.5397212,3.5876015h2.5397212Z"/>
    <path class="cls-1" d="M237.6878539,38.6822358h-4.6035565v-2.0794653h7.0957224v1.7143201l-4.2540414,9.3976669h-2.5081285l4.270004-9.0325217Z"/>
  </g>
  <rect class="cls-1" x="129.7441305" y="41.0828806" width="2.951694" height="2.9516939" rx="1.4758455" ry="1.4758455"/>
</svg>